<svg width="128" height="128" viewBox="0 0 24 24" fill="none" xmlns="http://www.w3.org/2000/svg">
  <rect width="24" height="24" rx="4" fill="#0c0c0c"/>
  <path d="M3 10C3 8.34315 4.34315 7 6 7H9C9.55228 7 10 7.44772 10 8V9.5C10 10.3284 10.6716 11 11.5 11H12.5C13.3284 11 14 10.3284 14 9.5V8C14 7.44772 14.4477 7 15 7H18C19.6569 7 21 8.34315 21 10V18C21 19.1046 19.6569 20 18 20H6C4.34315 20 3 18.6569 3 17V10Z" fill="white"/>
  <rect x="10.5" y="4.5" width="3" height="6" rx="1.5" fill="#f59e0b"/>
</svg>
